<?xml version="1.0" standalone="no"?>
<!DOCTYPE svg PUBLIC "-//W3C//DTD SVG 20010904//EN"
 "http://www.w3.org/TR/2001/REC-SVG-20010904/DTD/svg10.dtd">
<svg version="1.0" xmlns="http://www.w3.org/2000/svg"
 width="113.000000pt" height="113.000000pt" viewBox="0 0 113.000000 113.000000"
 preserveAspectRatio="xMidYMid meet">
<metadata>
Created by potrace 1.14, written by Peter Selinger 2001-2017
</metadata>
<g transform="translate(0.000000,113.000000) scale(0.100000,-0.100000)"
fill="#000000" stroke="none">
<path d="M392 988 c-7 -7 -12 -22 -12 -35 0 -18 7 -25 30 -29 l30 -6 0 -77 c0
-42 -4 -70 -8 -64 -6 10 -20 6 -54 -16 -182 -116 -164 -384 32 -474 63 -29
170 -29 226 1 23 11 55 33 72 47 27 23 31 24 34 8 2 -11 17 13 35 57 17 41 30
76 29 78 -3 2 -60 -8 -136 -24 -24 -5 -24 -6 -6 -20 19 -13 19 -14 0 -35 -52
-59 -160 -75 -235 -36 -121 64 -136 226 -30 319 l36 32 3 -97 c2 -86 1 -98
-18 -117 -36 -36 4 -77 66 -66 15 3 44 2 64 -3 46 -10 70 2 70 35 0 17 -8 28
-27 36 -16 7 -30 13 -32 15 -3 2 -5 46 -6 99 -2 88 0 96 19 103 11 4 30 7 43
5 17 -2 30 7 48 34 l25 37 -70 3 -70 3 0 49 c0 74 5 80 61 80 44 0 50 -3 64
-30 18 -34 59 -41 73 -12 11 20 5 82 -10 99 -14 18 -329 18 -346 1z m45 -260
c-3 -7 -5 -2 -5 12 0 14 2 19 5 13 2 -7 2 -19 0 -25z"/>
<path d="M686 293 c-3 -3 3 -12 14 -20 44 -31 7 -79 -76 -100 -94 -23 -251 4
-274 47 -11 20 -4 50 12 50 5 0 6 5 3 10 -10 16 -43 -6 -60 -40 -25 -49 -1
-91 71 -126 53 -26 69 -29 159 -29 87 0 106 4 150 26 62 31 95 83 78 122 -13
27 -67 70 -77 60z m14 -133 c0 -11 0 -23 1 -27 0 -4 -4 -9 -9 -11 -10 -3 -23
44 -14 53 11 11 22 4 22 -15z"/>
</g>
</svg>
